<svg width="42" height="40" viewBox="0 0 42 40" fill="none" xmlns="http://www.w3.org/2000/svg">
<g id="cloud_24px">
<g id="Group 78">
<g id="icon/file/cloud_24px">
<path fill-rule="evenodd" clip-rule="evenodd" d="M9.91667 10.7333C12 6.73333 16.1833 4 21 4C27.0667 4 32.1167 8.31667 33.25 14.0667C37.5833 14.3667 41 17.9333 41 22.3333C41 26.9333 37.2667 30.6667 32.6667 30.6667H11C5.48333 30.6667 1 26.1833 1 20.6667C1 15.5167 4.9 11.2667 9.91667 10.7333ZM29.9833 14.7166C29.1333 10.4333 25.3666 7.33325 20.9999 7.33325C17.5666 7.33325 14.4666 9.23325 12.8833 12.2833L12.0499 13.8666L10.2666 14.0499C6.88325 14.3999 4.33325 17.2499 4.33325 20.6666C4.33325 24.3499 7.31659 27.3333 10.9999 27.3333H32.6666C35.4166 27.3333 37.6666 25.0833 37.6666 22.3333C37.6666 19.7499 35.6333 17.5666 33.0333 17.3999L30.4833 17.2166L29.9833 14.7166Z" fill="#CFD0D7"/>
<path d="M9.91667 10.7333L9.99595 11.4791L10.396 11.4366L10.5819 11.0798L9.91667 10.7333ZM33.25 14.0667L32.5142 14.2117L32.6252 14.7752L33.1982 14.8149L33.25 14.0667ZM29.9833 14.7166L29.2476 14.8626L29.2478 14.8637L29.9833 14.7166ZM12.8833 12.2833L13.547 12.6326L13.5489 12.6288L12.8833 12.2833ZM12.0499 13.8666L12.1266 14.6127L12.5264 14.5716L12.7136 14.2159L12.0499 13.8666ZM10.2666 14.0499L10.1899 13.3039L10.1894 13.3039L10.2666 14.0499ZM33.0333 17.3999L32.9795 18.148L32.9853 18.1484L33.0333 17.3999ZM30.4833 17.2166L29.7478 17.3637L29.8598 17.9237L30.4295 17.9647L30.4833 17.2166ZM21 3.25C15.8924 3.25 11.4587 6.14908 9.25148 10.3869L10.5819 11.0798C12.5413 7.31759 16.4743 4.75 21 4.75V3.25ZM33.9858 13.9216C32.7846 7.82711 27.4321 3.25 21 3.25V4.75C26.7013 4.75 31.4487 8.80622 32.5142 14.2117L33.9858 13.9216ZM41.75 22.3333C41.75 17.5316 38.0207 13.6451 33.3018 13.3185L33.1982 14.8149C37.146 15.0882 40.25 18.3351 40.25 22.3333H41.75ZM32.6667 31.4167C37.6809 31.4167 41.75 27.3475 41.75 22.3333H40.25C40.25 26.5191 36.8525 29.9167 32.6667 29.9167V31.4167ZM11 31.4167H32.6667V29.9167H11V31.4167ZM0.25 20.6667C0.25 26.5975 5.06912 31.4167 11 31.4167V29.9167C5.89755 29.9167 1.75 25.7691 1.75 20.6667H0.25ZM9.83738 9.98754C4.44253 10.5611 0.25 15.1299 0.25 20.6667H1.75C1.75 15.9034 5.35747 11.9723 9.99595 11.4791L9.83738 9.98754ZM20.9999 8.08325C25.0078 8.08325 28.4671 10.9294 29.2476 14.8626L30.7189 14.5706C29.7994 9.93706 25.7254 6.58325 20.9999 6.58325V8.08325ZM13.5489 12.6288C15.0045 9.82494 17.8492 8.08325 20.9999 8.08325V6.58325C17.284 6.58325 13.9287 8.64156 12.2176 11.9377L13.5489 12.6288ZM12.7136 14.2159L13.5469 12.6326L12.2196 11.9339L11.3862 13.5173L12.7136 14.2159ZM10.3433 14.796L12.1266 14.6127L11.9732 13.1205L10.1899 13.3039L10.3433 14.796ZM5.08325 20.6666C5.08325 17.63 7.34698 15.1059 10.3438 14.7959L10.1894 13.3039C6.41952 13.6939 3.58325 16.8699 3.58325 20.6666H5.08325ZM10.9999 26.5833C7.7308 26.5833 5.08325 23.9357 5.08325 20.6666H3.58325C3.58325 24.7641 6.90237 28.0833 10.9999 28.0833V26.5833ZM32.6666 26.5833H10.9999V28.0833H32.6666V26.5833ZM36.9166 22.3333C36.9166 24.669 35.0024 26.5833 32.6666 26.5833V28.0833C35.8308 28.0833 38.4166 25.4975 38.4166 22.3333H36.9166ZM32.9853 18.1484C35.1896 18.2897 36.9166 20.1446 36.9166 22.3333H38.4166C38.4166 19.3552 36.0769 16.8435 33.0812 16.6515L32.9853 18.1484ZM30.4295 17.9647L32.9795 18.148L33.087 16.6518L30.537 16.4685L30.4295 17.9647ZM29.2478 14.8637L29.7478 17.3637L31.2187 17.0695L30.7187 14.5695L29.2478 14.8637Z" fill="white"/>
</g>
<rect id="Rectangle 22" x="14" y="27.3333" width="15" height="4" fill="white"/>
<path id="Path" d="M16.41 25.41L20 21.83L20 36L22 36L22 21.83L25.59 25.42L27 24L21 18L15 24L16.41 25.41Z" fill="#D47C59"/>
</g>
</g>
</svg>
